/* XPM */
static char * close_active_xpm[] = {
"20 24 146 2",
"  	c None",
". 	c #AAAAAA",
"+ 	c #F8F8F8",
"@ 	c #F6F6F6",
"# 	c #F4F4F4",
"$ 	c #F2F2F2",
"% 	c #F0F0F0",
"& 	c #E0E0E0",
"* 	c #C4C4C4",
"= 	c #C3C3C3",
"- 	c #DEDFE0",
"; 	c #EEEEEE",
"> 	c #EDEDED",
", 	c #A7A7A7",
"' 	c #4D4256",
") 	c #431E60",
"! 	c #633686",
"~ 	c #653888",
"{ 	c #451F63",
"] 	c #493E52",
"^ 	c #9F9F9F",
"/ 	c #ECECEC",
"( 	c #E7E7E7",
"_ 	c #5E5B61",
": 	c #5C367A",
"< 	c #C8A5E3",
"[ 	c #EBDCF6",
"} 	c #EFE4F8",
"| 	c #ECDEF6",
"1 	c #CEADE7",
"2 	c #674284",
"3 	c #545159",
"4 	c #E3E4E5",
"5 	c #EAEAEA",
"6 	c #E8E9EA",
"7 	c #5C595F",
"8 	c #76449C",
"9 	c #D9BEEE",
"0 	c #DEC6F0",
"a 	c #DDC4F0",
"b 	c #8354A8",
"c 	c #534D57",
"d 	c #E8E8E8",
"e 	c #A0A0A0",
"f 	c #4F1D75",
"g 	c #C093E3",
"h 	c #CDA9E9",
"i 	c #C89FE7",
"j 	c #572280",
"k 	c #939393",
"l 	c #E5E5E5",
"m 	c #473C50",
"n 	c #8732C8",
"o 	c #BD8EE2",
"p 	c #8F3FCD",
"q 	c #42324E",
"r 	c #E4E4E4",
"s 	c #E3E3E3",
"t 	c #D3D3D3",
"u 	c #421B61",
"v 	c #8A34CC",
"w 	c #A869D9",
"x 	c #AD71DB",
"y 	c #AB6EDA",
"z 	c #8B35CD",
"A 	c #471B69",
"B 	c #CACACA",
"C 	c #E1E1E1",
"D 	c #B6B7B8",
"E 	c #572082",
"F 	c #903FCF",
"G 	c #9C54D4",
"H 	c #9E58D4",
"I 	c #A25ED6",
"J 	c #A564D8",
"K 	c #A565D7",
"L 	c #9D56D4",
"M 	c #9242D0",
"N 	c #5F238D",
"O 	c #AAABAC",
"P 	c #C6C6C6",
"Q 	c #632D8D",
"R 	c #9649D1",
"S 	c #B884E0",
"T 	c #BC8DE1",
"U 	c #B885DF",
"V 	c #9547D1",
"W 	c #662A94",
"X 	c #BEBFC0",
"Y 	c #DCDDDE",
"Z 	c #DBDCDD",
"` 	c #6C4789",
" .	c #9446D0",
"..	c #B37CDE",
"+.	c #C296E4",
"@.	c #B179DD",
"#.	c #9243CF",
"$.	c #673C88",
"%.	c #DBDBDB",
"&.	c #D8D8D8",
"*.	c #837A8A",
"=.	c #8632C6",
"-.	c #A35FD7",
";.	c #BF91E3",
">.	c #A15CD6",
",.	c #8833C9",
"'.	c #7B6D85",
").	c #D9D9D9",
"!.	c #D7D7D7",
"~.	c #CDCDCD",
"{.	c #552977",
"].	c #BE8FE3",
"^.	c #A05BD5",
"/.	c #58267E",
"(.	c #D6D6D6",
"_.	c #9B999D",
":.	c #67338F",
"<.	c #C194E4",
"[.	c #B076DC",
"}.	c #6B3397",
"|.	c #8F8C92",
"1.	c #DADADA",
"2.	c #D4D4D4",
"3.	c #DEDEDE",
"4.	c #9A989C",
"5.	c #553072",
"6.	c #9F62CE",
"7.	c #B986E0",
"8.	c #9F60D0",
"9.	c #582F77",
"0.	c #8F8D91",
"a.	c #DFDFDF",
"b.	c #D2D2D2",
"c.	c #D1D1D1",
"d.	c #DCDCDC",
"e.	c #D5D5D5",
"f.	c #78717D",
"g.	c #583B6F",
"h.	c #5B307C",
"i.	c #56386E",
"j.	c #736B79",
"k.	c #DDDDDD",
"l.	c #D0D0D0",
"m.	c #E9E9E9",
"n.	c #CECECE",
"o.	c #CCCCCC",
". . . . . . . . . . . . . . . . . . . . ",
"+ + + + + + + + + + + + + + + + + + + + ",
"@ @ @ @ @ @ @ @ @ @ @ @ @ @ @ @ @ @ @ @ ",
"# # # # # # # # # # # # # # # # # # # # ",
"$ $ $ $ $ $ $ $ $ $ $ $ $ $ $ $ $ $ $ $ ",
"% % % % % % % % & * = - % % % % % % % % ",
"; ; ; ; ; > , ' ) ! ~ { ] ^ > ; ; ; ; ; ",
"/ / / / ( _ : < [ } } | 1 2 3 4 / / / / ",
"5 5 5 6 7 8 9 0 0 0 0 0 0 a b c d 5 5 5 ",
"( ( ( e f g h h h h h h h h i j k ( ( ( ",
"l l l m n o o o o o o o o o o p q r l l ",
"s s t u v w x x x x x x x x y z A B s s ",
"C C D E v F G H I J K I L G M v N O C C ",
"- - P Q v v R y S T T U y V v v W X - - ",
"Y Y Z ` v  ...g +.+.+.+.g @.#.v $.Z Y Y ",
"%.%.&.*.=.-.;.+.+.+.+.+.+.;.>.,.'.).%.%.",
"&.&.!.~.{.I ;.+.+.+.+.+.+.].^./.P !.&.&.",
"(.(.(.&._.:.@.;.<.+.+.<.;.[.}.|.1.(.(.(.",
"2.2.2.2.3.4.5.6...7.7...8.9.0.a.t 2.2.2.",
"b.b.b.b.c.d.e.f.g.h.h.i.j.c.k.c.b.b.b.b.",
"l.l.l.l.l.l.l.& / 5 m./ C l.l.l.l.l.l.l.",
"n.n.n.n.n.n.n.n.n.n.n.n.n.n.n.n.n.n.n.n.",
"o.o.o.o.o.o.o.o.o.o.o.o.o.o.o.o.o.o.o.o.",
". . . . . . . . . . . . . . . . . . . . "};
