/* XPM */
static char * stick_active_xpm[] = {
"20 24 149 2",
"  	c None",
". 	c #AAAAAA",
"+ 	c #F8F8F8",
"@ 	c #F6F6F6",
"# 	c #F4F4F4",
"$ 	c #F2F2F2",
"% 	c #F0F0F0",
"& 	c #E0E0E0",
"* 	c #C4C4C4",
"= 	c #C3C3C3",
"- 	c #E0DFDE",
"; 	c #EEEEEE",
"> 	c #EDEDED",
", 	c #A7A7A7",
"' 	c #514343",
") 	c #532221",
"! 	c #783A3A",
"~ 	c #7A3C3C",
"{ 	c #562222",
"] 	c #4E3F3E",
"^ 	c #9F9F9F",
"/ 	c #ECECEC",
"( 	c #E7E7E7",
"_ 	c #5F5B5B",
": 	c #6D3939",
"< 	c #D7A7A7",
"[ 	c #F1DDDD",
"} 	c #F4E4E5",
"| 	c #F2E0E1",
"1 	c #DCB0B0",
"2 	c #774545",
"3 	c #575251",
"4 	c #E5E4E3",
"5 	c #EAEAEA",
"6 	c #EAE9E8",
"7 	c #5F5A59",
"8 	c #8C484A",
"9 	c #E5C1C1",
"0 	c #E8C9C8",
"a 	c #E7C5C5",
"b 	c #985858",
"c 	c #544E4E",
"d 	c #E8E8E8",
"e 	c #A0A0A0",
"f 	c #632121",
"g 	c #D49696",
"h 	c #DDADAD",
"i 	c #D9A3A4",
"j 	c #6E2626",
"k 	c #939393",
"l 	c #E5E5E5",
"m 	c #4D3E3D",
"n 	c #AB3939",
"o 	c #D29293",
"p 	c #B24444",
"q 	c #473333",
"r 	c #E4E4E4",
"s 	c #E3E3E3",
"t 	c #D3D3D3",
"u 	c #531D1D",
"v 	c #B03A3A",
"w 	c #C46E6E",
"x 	c #C77575",
"y 	c #C67272",
"z 	c #B03C3C",
"A 	c #5A1E1E",
"B 	c #CACACA",
"C 	c #E1E1E1",
"D 	c #B8B7B6",
"E 	c #6F2525",
"F 	c #B34545",
"G 	c #BB5959",
"H 	c #BC5C5C",
"I 	c #BF6565",
"J 	c #C26A6A",
"K 	c #BF6363",
"L 	c #B64848",
"M 	c #7A2828",
"N 	c #ACABAA",
"O 	c #C6C6C6",
"P 	c #7C3232",
"Q 	c #AF3B3B",
"R 	c #B74F4F",
"S 	c #C67474",
"T 	c #CE8A8A",
"U 	c #D19191",
"V 	c #CE8888",
"W 	c #C57373",
"X 	c #7F2F2F",
"Y 	c #C0BFBE",
"Z 	c #DEDDDC",
"` 	c #DDDCDB",
" .	c #7D4B4B",
"..	c #B64C4C",
"+.	c #CB8181",
"@.	c #D59999",
"#.	c #CA7E7E",
"$.	c #B54949",
"%.	c #793F40",
"&.	c #DBDBDB",
"*.	c #D8D8D8",
"=.	c #877B7B",
"-.	c #A93939",
";.	c #C06666",
">.	c #D39595",
",.	c #BE6262",
"'.	c #AC3A3A",
").	c #806F6E",
"!.	c #D9D9D9",
"~.	c #D7D7D7",
"{.	c #CDCDCD",
"].	c #682C2C",
"^.	c #C06464",
"/.	c #D39393",
"(.	c #BE6060",
"_.	c #6E2A2A",
":.	c #D6D6D6",
"<.	c #9D999A",
"[.	c #7F3737",
"}.	c #D49494",
"|.	c #C97B7B",
"1.	c #853737",
"2.	c #918D8D",
"3.	c #DADADA",
"4.	c #D4D4D4",
"5.	c #DEDEDE",
"6.	c #9A9998",
"7.	c #653333",
"8.	c #BA6666",
"9.	c #CF8989",
"0.	c #BB6565",
"a.	c #683232",
"b.	c #908E8E",
"c.	c #DFDFDF",
"d.	c #D2D2D2",
"e.	c #D1D1D1",
"f.	c #DCDCDC",
"g.	c #D5D5D5",
"h.	c #7B7172",
"i.	c #643E3F",
"j.	c #6D3333",
"k.	c #6F3333",
"l.	c #653B3C",
"m.	c #766C6C",
"n.	c #DDDDDD",
"o.	c #D0D0D0",
"p.	c #E9E9E9",
"q.	c #CECECE",
"r.	c #CCCCCC",
". . . . . . . . . . . . . . . . . . . . ",
"+ + + + + + + + + + + + + + + + + + + + ",
"@ @ @ @ @ @ @ @ @ @ @ @ @ @ @ @ @ @ @ @ ",
"# # # # # # # # # # # # # # # # # # # # ",
"$ $ $ $ $ $ $ $ $ $ $ $ $ $ $ $ $ $ $ $ ",
"% % % % % % % % & * = - % % % % % % % % ",
"; ; ; ; ; > , ' ) ! ~ { ] ^ > ; ; ; ; ; ",
"/ / / / ( _ : < [ } } | 1 2 3 4 / / / / ",
"5 5 5 6 7 8 9 0 0 0 0 0 0 a b c d 5 5 5 ",
"( ( ( e f g h h h h h h h h i j k ( ( ( ",
"l l l m n o o o o o o o o o o p q r l l ",
"s s t u v w x x x x x x x x y z A B s s ",
"C C D E v F G H I J J K H G L v M N C C ",
"- - O P v Q R S T U U V W R Q v X Y - - ",
"Z Z `  .v ..+.g @.@.@.@.g #.$.v %.` Z Z ",
"&.&.*.=.-.;.>.@.@.@.@.@.@.>.,.'.).!.&.&.",
"*.*.~.{.].^.>.@.@.@.@.@.@./.(._.O ~.*.*.",
":.:.:.*.<.[.#.}.@.@.@.@.>.|.1.2.3.:.:.:.",
"4.4.4.4.5.6.7.8.+.9.9.+.0.a.b.c.t 4.4.4.",
"d.d.d.d.e.f.g.h.i.j.k.l.m.e.n.e.d.d.d.d.",
"o.o.o.o.o.o.o.& / 5 p./ C o.o.o.o.o.o.o.",
"q.q.q.q.q.q.q.q.q.q.q.q.q.q.q.q.q.q.q.q.",
"r.r.r.r.r.r.r.r.r.r.r.r.r.r.r.r.r.r.r.r.",
". . . . . . . . . . . . . . . . . . . . "};
